# xmcd CD database file
#
# Track frame offsets:
#	150
#	89920
#	110727
#
# Disc length: 2209 seconds
#
# Revision: 0
# Processed by: cddbd v1.5.2PL0 Copyright (c) Steve Scherf et al.
# Submitted via: CDex 1.70beta2
#
DISCID=27089f03
DTITLE=Billy Harper - The Believer
DYEAR=1900
DGENRE=Jazz
TTITLE0=Is it Not True, Simply Because You Cannot Believe it?
TTITLE1=I Do Believe
TTITLE2=Believe, for it is True!
EXTD=
EXTT0=
EXTT1=
EXTT2=
PLAYORDER=
